<svg width="80" height="120" viewBox="0 0 80 120" fill="none" xmlns="http://www.w3.org/2000/svg">
<path d="M40 120L16.3811 79.0909L63.6189 79.0909L40 120Z" fill="#06D6A0"/>
<path d="M40 120L16.3811 79.0909L63.6189 79.0909L40 120Z" fill="url(#paint0_linear)"/>
<path d="M0 18.1818C0 8.14028 8.14028 0 18.1818 0H61.8182C71.8597 0 80 8.14028 80 18.1818V61.8182C80 71.8597 71.8597 80 61.8182 80H18.1818C8.14028 80 0 71.8597 0 61.8182V18.1818Z" fill="#06D6A0"/>
<path d="M0 18.1818C0 8.14028 8.14028 0 18.1818 0H61.8182C71.8597 0 80 8.14028 80 18.1818V61.8182C80 71.8597 71.8597 80 61.8182 80H18.1818C8.14028 80 0 71.8597 0 61.8182V18.1818Z" fill="url(#paint1_linear)"/>
<g filter="url(#filter0_d)">
<path d="M40.4457 41.2819L39.9997 41.7219L39.5517 41.2819C38.7192 40.46 37.5965 39.9992 36.4267 39.9992C35.2569 39.9992 34.1342 40.46 33.3017 41.2819C32.8885 41.6794 32.5599 42.1562 32.3353 42.6837C32.1108 43.2112 31.9951 43.7786 31.9951 44.3519C31.9951 44.9252 32.1108 45.4926 32.3353 46.0201C32.5599 46.5477 32.8885 47.0244 33.3017 47.4219L39.9997 53.9999L46.6977 47.4219C47.1109 47.0244 47.4395 46.5477 47.664 46.0201C47.8886 45.4926 48.0043 44.9252 48.0043 44.3519C48.0043 43.7786 47.8886 43.2112 47.664 42.6837C47.4395 42.1562 47.1109 41.6794 46.6977 41.2819C45.8649 40.4599 44.7418 39.999 43.5717 39.999C42.4016 39.999 41.2785 40.4599 40.4457 41.2819Z" fill="white"/>
<path d="M59.4136 40.5859L41.4136 22.5859C41.228 22.4 41.0076 22.2525 40.765 22.1519C40.5223 22.0513 40.2622 21.9995 39.9996 21.9995C39.7369 21.9995 39.4768 22.0513 39.2342 22.1519C38.9916 22.2525 38.7712 22.4 38.5856 22.5859L20.5856 40.5859C20.306 40.8656 20.1155 41.2219 20.0384 41.6099C19.9613 41.9978 20.0009 42.3998 20.1522 42.7652C20.3036 43.1306 20.5598 43.4429 20.8887 43.6627C21.2175 43.8825 21.6041 43.9998 21.9996 43.9999H23.9996V57.9999C23.9996 60.2059 25.7936 61.9999 27.9996 61.9999H51.9996C54.2056 61.9999 55.9996 60.2059 55.9996 57.9999V43.9999H57.9996C58.3951 43.9998 58.7817 43.8825 59.1105 43.6627C59.4393 43.4429 59.6956 43.1306 59.8469 42.7652C59.9983 42.3998 60.0379 41.9978 59.9607 41.6099C59.8836 41.2219 59.6932 40.8656 59.4136 40.5859ZM52.0016 57.9999H27.9996V38.8299L39.9996 26.8299L51.9996 38.8299V47.9999L52.0016 57.9999Z" fill="white"/>
</g>
<defs>
<filter id="filter0_d" x="12" y="18" width="56" height="56" filterUnits="userSpaceOnUse" color-interpolation-filters="sRGB">
<feFlood flood-opacity="0" result="BackgroundImageFix"/>
<feColorMatrix in="SourceAlpha" type="matrix" values="0 0 0 0 0 0 0 0 0 0 0 0 0 0 0 0 0 0 127 0"/>
<feOffset dy="4"/>
<feGaussianBlur stdDeviation="2"/>
<feColorMatrix type="matrix" values="0 0 0 0 0 0 0 0 0 0 0 0 0 0 0 0 0 0 0.25 0"/>
<feBlend mode="normal" in2="BackgroundImageFix" result="effect1_dropShadow"/>
<feBlend mode="normal" in="SourceGraphic" in2="effect1_dropShadow" result="shape"/>
</filter>
<linearGradient id="paint0_linear" x1="40" y1="0" x2="40" y2="120" gradientUnits="userSpaceOnUse">
<stop stop-color="#25DB15"/>
<stop offset="1" stop-color="white" stop-opacity="0"/>
</linearGradient>
<linearGradient id="paint1_linear" x1="40" y1="0" x2="40" y2="120" gradientUnits="userSpaceOnUse">
<stop stop-color="#25DB15"/>
<stop offset="1" stop-color="white" stop-opacity="0"/>
</linearGradient>
</defs>
</svg>
