<svg width="80" height="120" viewBox="0 0 80 120" fill="none" xmlns="http://www.w3.org/2000/svg">
<path d="M40 120L16.3811 79.0909L63.6189 79.0909L40 120Z" fill="#1B77AB"/>
<path d="M40 120L16.3811 79.0909L63.6189 79.0909L40 120Z" fill="url(#paint0_linear)"/>
<path d="M0 18.1818C0 8.14028 8.14028 0 18.1818 0H61.8182C71.8597 0 80 8.14028 80 18.1818V61.8182C80 71.8597 71.8597 80 61.8182 80H18.1818C8.14028 80 0 71.8597 0 61.8182V18.1818Z" fill="#1B77AB"/>
<path d="M0 18.1818C0 8.14028 8.14028 0 18.1818 0H61.8182C71.8597 0 80 8.14028 80 18.1818V61.8182C80 71.8597 71.8597 80 61.8182 80H18.1818C8.14028 80 0 71.8597 0 61.8182V18.1818Z" fill="url(#paint1_linear)"/>
<g filter="url(#filter0_d)">
<path d="M39.9999 45.9999H51.9999V49.9999H39.9999V45.9999ZM28.5859 37.4139L33.1719 41.9999L28.5859 46.5859L31.4139 49.4139L38.8279 41.9999L31.4139 34.5859L28.5859 37.4139Z" fill="white"/>
<path d="M56 26H24C21.794 26 20 27.794 20 30V54C20 56.206 21.794 58 24 58H56C58.206 58 60 56.206 60 54V30C60 27.794 58.206 26 56 26ZM24 54V30H56L56.004 54H24Z" fill="white"/>
</g>
<defs>
<filter id="filter0_d" x="12" y="18" width="56" height="56" filterUnits="userSpaceOnUse" color-interpolation-filters="sRGB">
<feFlood flood-opacity="0" result="BackgroundImageFix"/>
<feColorMatrix in="SourceAlpha" type="matrix" values="0 0 0 0 0 0 0 0 0 0 0 0 0 0 0 0 0 0 127 0"/>
<feOffset dy="4"/>
<feGaussianBlur stdDeviation="2"/>
<feColorMatrix type="matrix" values="0 0 0 0 0 0 0 0 0 0 0 0 0 0 0 0 0 0 0.25 0"/>
<feBlend mode="normal" in2="BackgroundImageFix" result="effect1_dropShadow"/>
<feBlend mode="normal" in="SourceGraphic" in2="effect1_dropShadow" result="shape"/>
</filter>
<linearGradient id="paint0_linear" x1="40" y1="0" x2="40" y2="120" gradientUnits="userSpaceOnUse">
<stop stop-color="#07C1DB"/>
<stop offset="1" stop-color="white" stop-opacity="0"/>
</linearGradient>
<linearGradient id="paint1_linear" x1="40" y1="0" x2="40" y2="120" gradientUnits="userSpaceOnUse">
<stop stop-color="#07C1DB"/>
<stop offset="1" stop-color="white" stop-opacity="0"/>
</linearGradient>
</defs>
</svg>
