<svg width="100" height="150" viewBox="0 0 100 150" fill="none" xmlns="http://www.w3.org/2000/svg">
<path d="M50 150L20.4764 98.8636L79.5236 98.8636L50 150Z" fill="#1B77AB"/>
<path d="M50 150L20.4764 98.8636L79.5236 98.8636L50 150Z" fill="url(#paint0_linear)"/>
<path d="M0 22.7273C0 10.1753 10.1753 0 22.7273 0H77.2727C89.8247 0 100 10.1753 100 22.7273V77.2727C100 89.8247 89.8247 100 77.2727 100H22.7273C10.1753 100 0 89.8247 0 77.2727V22.7273Z" fill="#1B77AB"/>
<path d="M0 22.7273C0 10.1753 10.1753 0 22.7273 0H77.2727C89.8247 0 100 10.1753 100 22.7273V77.2727C100 89.8247 89.8247 100 77.2727 100H22.7273C10.1753 100 0 89.8247 0 77.2727V22.7273Z" fill="url(#paint1_linear)"/>
<g filter="url(#filter0_d)">
<path d="M50 60.5L52.5 55.5V42.645C56.8025 41.5275 60 37.645 60 33C60 27.485 55.515 23 50 23C44.485 23 40 27.485 40 33C40 37.645 43.1975 41.5275 47.5 42.645V55.5L50 60.5ZM45 33C45 30.2425 47.2425 28 50 28C52.7575 28 55 30.2425 55 33C55 35.7575 52.7575 38 50 38C47.2425 38 45 35.7575 45 33Z" fill="white"/>
<path d="M60.6675 44.4075L59.335 49.2275C65.8125 51.0175 70 54.46 70 58C70 62.73 61.7875 68 50 68C38.2125 68 30 62.73 30 58C30 54.46 34.1875 51.0175 40.6675 49.225L39.335 44.405C30.4925 46.85 25 52.0575 25 58C25 66.41 35.9825 73 50 73C64.0175 73 75 66.41 75 58C75 52.0575 69.5075 46.85 60.6675 44.4075V44.4075Z" fill="white"/>
</g>
<defs>
<filter id="filter0_d" x="16" y="18" width="68" height="68" filterUnits="userSpaceOnUse" color-interpolation-filters="sRGB">
<feFlood flood-opacity="0" result="BackgroundImageFix"/>
<feColorMatrix in="SourceAlpha" type="matrix" values="0 0 0 0 0 0 0 0 0 0 0 0 0 0 0 0 0 0 127 0"/>
<feOffset dy="4"/>
<feGaussianBlur stdDeviation="2"/>
<feColorMatrix type="matrix" values="0 0 0 0 0 0 0 0 0 0 0 0 0 0 0 0 0 0 0.25 0"/>
<feBlend mode="normal" in2="BackgroundImageFix" result="effect1_dropShadow"/>
<feBlend mode="normal" in="SourceGraphic" in2="effect1_dropShadow" result="shape"/>
</filter>
<linearGradient id="paint0_linear" x1="50" y1="0" x2="50" y2="150" gradientUnits="userSpaceOnUse">
<stop stop-color="#07C1DB"/>
<stop offset="1" stop-color="white" stop-opacity="0"/>
</linearGradient>
<linearGradient id="paint1_linear" x1="50" y1="0" x2="50" y2="150" gradientUnits="userSpaceOnUse">
<stop stop-color="#07C1DB"/>
<stop offset="1" stop-color="white" stop-opacity="0"/>
</linearGradient>
</defs>
</svg>
